<!-- Source: SVG Repo (car-transport-navigation), strokes normalized to currentColor -->
<svg
  xmlns="http://www.w3.org/2000/svg"
  width="32"
  height="32"
  viewBox="0 0 32 32"
  fill="none"
  stroke="currentColor"
  stroke-width="1.5"
  stroke-linecap="round"
  stroke-linejoin="round"
>
  <path d="M29.5,27.5v2c0,0.55-0.45,1-1,1h-1c-0.55,0-1-0.45-1-1v-2" />
  <line x1="30.5" x2="16.5" y1="27.5" y2="27.5" />
  <path d="M19.5,20.5c8.5,0,11,0.583,11,3v1.188" />
  <path d="M26.5,25.5v-1c0-0.55,0.45-1,1-1h3v2H26.5z" />
  <path d="M18.5,23.5h4c1.104,0,2,0.896,2,2l0,0" />
  <path d="M28.569,21.206L26.82,15.95c-0.181-0.53-0.761-1.02-1.311-1.09c-0.775-0.098-1.973-0.221-3.444-0.295" />
  <path d="M8.439,1.85C9.254,1.621,10.113,1.5,11,1.5c5.245,0,9.5,4.254,9.5,9.5c0,8.063-9.5,19.5-9.5,19.5S1.5,19.063,1.5,11c0-2.697,1.125-5.133,2.931-6.861" />
  <circle cx="11" cy="11" r="5.5" />
  <line x1="3.5" x2="11" y1="30.5" y2="30.5" />
  <line x1="16.5" x2="27.5" y1="30.5" y2="30.5" />
  <line x1="6.577" x2="6.493" y1="2.508" y2="2.563" />
</svg>
